<svg xmlns="http://www.w3.org/2000/svg" width="103" height="90" viewBox="0 0 103 90">
  <g id="Group_107" data-name="Group 107" transform="translate(-470.715 -439.688)">
    <path id="Path_779" data-name="Path 779" d="M-124.137-19.261h3.633a1.661,1.661,0,0,0,1.139-.357,1.267,1.267,0,0,0,.4-1v-.024a1.431,1.431,0,0,0-.18-.738,1.156,1.156,0,0,0-.528-.467,1.975,1.975,0,0,0-.834-.161h-3.633v-2.072h3.633a1.458,1.458,0,0,0,1.029-.338,1.231,1.231,0,0,0,.364-.95,1.057,1.057,0,0,0-.364-.856,1.555,1.555,0,0,0-1.029-.306h-3.633V-28.6h3.7a4.438,4.438,0,0,1,1.887.365,2.62,2.62,0,0,1,1.19,1.06,3.244,3.244,0,0,1,.407,1.668,2.564,2.564,0,0,1-.262,1.181,2.189,2.189,0,0,1-.763.844,3.1,3.1,0,0,1-1.206.447,3.024,3.024,0,0,1,1.288.459,2.312,2.312,0,0,1,.814.93,3.006,3.006,0,0,1,.278,1.327v.024a3.257,3.257,0,0,1-.411,1.68,2.633,2.633,0,0,1-1.2,1.064,4.465,4.465,0,0,1-1.891.365h-3.836Zm-.939-9.342h2.145v11.414h-2.145Zm10.35,0h2.145v11.414h-2.145Zm.775,9.342h6.85v2.072h-6.85Zm0-4.632h5.989v2.072h-5.989Zm0-4.71h6.85v2.072h-6.85Zm12.385,11.532a7.674,7.674,0,0,1-1.593-.165,6.818,6.818,0,0,1-1.464-.483,5.613,5.613,0,0,1-1.225-.765l.994-1.774a4.812,4.812,0,0,0,1.519.836,5.433,5.433,0,0,0,1.769.294,3.108,3.108,0,0,0,1.628-.357,1.123,1.123,0,0,0,.579-1.009V-20.5a.994.994,0,0,0-.258-.722,1.534,1.534,0,0,0-.673-.393,8.138,8.138,0,0,0-1.065-.228.137.137,0,0,0-.043-.008.137.137,0,0,1-.043-.008l-.172-.024a10.554,10.554,0,0,1-1.895-.451,2.79,2.79,0,0,1-1.276-.95,3.094,3.094,0,0,1-.525-1.927v-.008a3.485,3.485,0,0,1,.493-1.892,3.115,3.115,0,0,1,1.433-1.2,5.634,5.634,0,0,1,2.27-.412,5.766,5.766,0,0,1,1.249.141,6.763,6.763,0,0,1,1.249.408,6.96,6.96,0,0,1,1.159.644l-.908,1.821a5.752,5.752,0,0,0-1.374-.707,4.148,4.148,0,0,0-1.374-.251,2.971,2.971,0,0,0-1.527.326,1.016,1.016,0,0,0-.54.915v.008a1.066,1.066,0,0,0,.282.781,1.68,1.68,0,0,0,.7.42,11.047,11.047,0,0,0,1.166.283.527.527,0,0,0,.063.012.526.526,0,0,1,.063.012.909.909,0,0,1,.09.02.911.911,0,0,0,.09.02,9.5,9.5,0,0,1,1.8.514,2.811,2.811,0,0,1,1.21.973,3.072,3.072,0,0,1,.485,1.833v.016a3.335,3.335,0,0,1-.509,1.868,3.183,3.183,0,0,1-1.484,1.185A6.058,6.058,0,0,1-101.567-17.071Zm7.829-10.6h2.145v10.48h-2.145Zm-3.1-.934h8.345v2.072h-8.345Zm14.53,9.342h3.633a1.661,1.661,0,0,0,1.139-.357,1.267,1.267,0,0,0,.4-1v-.024a1.431,1.431,0,0,0-.18-.738,1.156,1.156,0,0,0-.528-.467,1.975,1.975,0,0,0-.834-.161h-3.633v-2.072h3.633a1.458,1.458,0,0,0,1.029-.338,1.231,1.231,0,0,0,.364-.95,1.057,1.057,0,0,0-.364-.856,1.555,1.555,0,0,0-1.029-.306h-3.633V-28.6h3.7a4.438,4.438,0,0,1,1.887.365,2.62,2.62,0,0,1,1.19,1.06,3.244,3.244,0,0,1,.407,1.668,2.565,2.565,0,0,1-.262,1.181,2.19,2.19,0,0,1-.763.844,3.1,3.1,0,0,1-1.206.447,3.024,3.024,0,0,1,1.288.459,2.312,2.312,0,0,1,.814.93,3.006,3.006,0,0,1,.278,1.327v.024a3.257,3.257,0,0,1-.411,1.68,2.633,2.633,0,0,1-1.2,1.064,4.465,4.465,0,0,1-1.891.365h-3.836Zm-.939-9.342H-81.1v11.414h-2.145ZM-69.14-17.071a4.7,4.7,0,0,1-2.247-.5A3.309,3.309,0,0,1-72.8-19.021a5.012,5.012,0,0,1-.485-2.3V-28.6h2.145v7.34a2.1,2.1,0,0,0,.525,1.523,1.964,1.964,0,0,0,1.48.542,1.988,1.988,0,0,0,1.491-.542,2.089,2.089,0,0,0,.528-1.523V-28.6h2.145v7.285a4.978,4.978,0,0,1-.489,2.3,3.327,3.327,0,0,1-1.425,1.452A4.728,4.728,0,0,1-69.14-17.071Zm7.21-6.782h3.961a1.03,1.03,0,0,0,.579-.165A1.07,1.07,0,0,0-57-24.489a1.8,1.8,0,0,0,.145-.707,1.714,1.714,0,0,0-.137-.707,1.07,1.07,0,0,0-.388-.471,1.044,1.044,0,0,0-.587-.165H-61.93V-28.61H-57.8a3.169,3.169,0,0,1,1.652.424,2.863,2.863,0,0,1,1.1,1.2,3.921,3.921,0,0,1,.391,1.794,3.921,3.921,0,0,1-.391,1.794,2.855,2.855,0,0,1-1.108,1.2,3.174,3.174,0,0,1-1.648.424H-61.93Zm-.853-4.757h2.145v11.422h-2.145Zm3.249,6.476,2.294-.361,3.069,5.307h-2.6ZM-44.55-23.57v2.229a4.723,4.723,0,0,1-.513,2.241,3.634,3.634,0,0,1-1.452,1.5,4.354,4.354,0,0,1-2.176.53,4.663,4.663,0,0,1-2.2-.5,3.56,3.56,0,0,1-1.472-1.409,4.18,4.18,0,0,1-.521-2.112v-3.368a4.7,4.7,0,0,1,.513-2.237,3.64,3.64,0,0,1,1.452-1.5,4.354,4.354,0,0,1,2.176-.53,4.228,4.228,0,0,1,1.879.42,3.91,3.91,0,0,1,1.437,1.189,4.369,4.369,0,0,1,.779,1.782h-2.317a1.51,1.51,0,0,0-.388-.624,1.818,1.818,0,0,0-.634-.4,2.122,2.122,0,0,0-.755-.137,1.974,1.974,0,0,0-1.006.251,1.71,1.71,0,0,0-.673.714,2.3,2.3,0,0,0-.239,1.068v3.368a1.808,1.808,0,0,0,.243.942,1.606,1.606,0,0,0,.689.628,2.311,2.311,0,0,0,1.033.22,2.067,2.067,0,0,0,1.014-.239,1.622,1.622,0,0,0,.669-.695,2.317,2.317,0,0,0,.235-1.075V-21.5H-48.5V-23.57Zm2.114-5.032h2.145v11.414h-2.145Zm.775,9.342h6.85v2.072h-6.85Zm0-4.632h5.989v2.072h-5.989Zm0-4.71h6.85v2.072h-6.85ZM-32-23.853h3.961a1.03,1.03,0,0,0,.579-.165,1.07,1.07,0,0,0,.388-.471,1.8,1.8,0,0,0,.145-.707,1.714,1.714,0,0,0-.137-.707,1.07,1.07,0,0,0-.388-.471,1.044,1.044,0,0,0-.587-.165H-32V-28.61h4.134a3.169,3.169,0,0,1,1.652.424,2.863,2.863,0,0,1,1.1,1.2A3.921,3.921,0,0,1-24.72-25.2a3.92,3.92,0,0,1-.391,1.794,2.855,2.855,0,0,1-1.108,1.2,3.174,3.174,0,0,1-1.648.424H-32Zm-.853-4.757h2.145v11.422h-2.145Zm3.249,6.476,2.294-.361,3.069,5.307h-2.6Z" transform="translate(597.207 507.259)" fill="#282f39"/>
    <g id="Group_149" data-name="Group 149" transform="translate(470.715 497.436)">
      <g id="Group_147" data-name="Group 147" transform="translate(0 0)">
        <path id="Path_769" data-name="Path 769" d="M573.715,583.511c-1.438,18.429-18.677,32.252-51.5,32.252-38.885,0-50.061-13.823-51.5-32.252H543l9.343,13.377V583.511Z" transform="translate(-470.715 -583.511)" fill="#f29400"/>
        <path id="Path_770" data-name="Path 770" d="M666.153,583.511l-5.62,5.332,5.62,8.046Z" transform="translate(-584.524 -583.511)" fill="#d85811"/>
        <g id="Group_146" data-name="Group 146" transform="translate(0 0)">
          <path id="Path_771" data-name="Path 771" d="M543,583.511H470.715a39.037,39.037,0,0,0,1.907,9.678C481.875,585.723,543,583.511,543,583.511Z" transform="translate(-470.715 -583.511)" fill="#d85811"/>
        </g>
      </g>
    </g>
    <g id="Group_151" data-name="Group 151" transform="translate(471.441 439.688)">
      <path id="Path_774" data-name="Path 774" d="M574.077,471.107c-1.962-16.958-10.891-26.753-25.786-30.185-5.994-1.382-19.249-2.766-24.988,2.792-5.739-5.558-18.993-4.173-24.988-2.792-14.895,3.432-23.823,13.227-25.786,30.185Z" transform="translate(-472.529 -439.688)" fill="#f29400"/>
      <g id="Group_150" data-name="Group 150" transform="translate(13.612 8.093)">
        <path id="Path_775" data-name="Path 775" d="M646.285,493.917a1.471,1.471,0,1,1-1.471-1.476A1.473,1.473,0,0,1,646.285,493.917Z" transform="translate(-588.556 -479.353)" fill="#f9a63a"/>
        <ellipse id="Ellipse_125" data-name="Ellipse 125" cx="1.471" cy="1.476" rx="1.471" ry="1.476" transform="translate(72.626 7.053)" fill="#f9a63a"/>
        <ellipse id="Ellipse_126" data-name="Ellipse 126" cx="1.471" cy="1.476" rx="1.471" ry="1.476" transform="translate(44.839 7.053)" fill="#f9a63a"/>
        <ellipse id="Ellipse_127" data-name="Ellipse 127" cx="1.471" cy="1.476" rx="1.471" ry="1.476" transform="translate(64.83 8.529)" fill="#f9a63a"/>
        <path id="Path_776" data-name="Path 776" d="M646.285,465a1.471,1.471,0,1,1-1.471-1.475A1.473,1.473,0,0,1,646.285,465Z" transform="translate(-588.556 -462.044)" fill="#f9a63a"/>
        <ellipse id="Ellipse_128" data-name="Ellipse 128" cx="1.471" cy="1.476" rx="1.471" ry="1.476" transform="translate(31.327 5.578)" fill="#f9a63a"/>
        <ellipse id="Ellipse_129" data-name="Ellipse 129" cx="1.471" cy="1.476" rx="1.471" ry="1.476" transform="translate(10.236 7.616)" fill="#f9a63a"/>
        <ellipse id="Ellipse_130" data-name="Ellipse 130" cx="1.471" cy="1.476" rx="1.471" ry="1.476" transform="translate(34.969 12.743)" fill="#f9a63a"/>
        <ellipse id="Ellipse_131" data-name="Ellipse 131" cx="1.471" cy="1.476" rx="1.471" ry="1.476" transform="translate(25.058)" fill="#f9a63a"/>
        <path id="Path_777" data-name="Path 777" d="M558.859,496.732a1.471,1.471,0,1,1-1.471-1.476A1.473,1.473,0,0,1,558.859,496.732Z" transform="translate(-536.137 -481.038)" fill="#f9a63a"/>
        <ellipse id="Ellipse_132" data-name="Ellipse 132" cx="1.471" cy="1.476" rx="1.471" ry="1.476" transform="translate(0 6.14)" fill="#f9a63a"/>
      </g>
      <path id="Path_778" data-name="Path 778" d="M571.874,493.311c-24.426,4.668-71.572,11.833-98.278,3.835a49.748,49.748,0,0,0-1.067,6.053H574.077A45.642,45.642,0,0,0,571.874,493.311Z" transform="translate(-472.529 -471.78)" fill="#d85811"/>
    </g>
  </g>
</svg>
