<svg xmlns="http://www.w3.org/2000/svg" width="19.25" height="12.375" viewBox="0 0 19.25 12.375">
  <path id="Path_466" data-name="Path 466" d="M12.719,5.734a.43.43,0,0,1,.688,0l5.672,5.672a.43.43,0,0,1,0,.688l-5.672,5.672a.43.43,0,0,1-.687,0l-.859-.816a.534.534,0,0,1-.172-.387.408.408,0,0,1,.172-.344l3.48-3.352H.516a.5.5,0,0,1-.365-.15A.5.5,0,0,1,0,12.352v-1.2a.5.5,0,0,1,.15-.365.5.5,0,0,1,.365-.15H15.34l-3.48-3.352a.408.408,0,0,1-.172-.344.534.534,0,0,1,.172-.387Z" transform="translate(0 -5.563)" fill="#fff"/>
</svg>
